<?xml version="1.0" encoding="utf-8"?>
<!-- Generator: Adobe Illustrator 21.0.0, SVG Export Plug-In . SVG Version: 6.00 Build 0)  -->
<svg version="1.1" id="Layer_1" xmlns="http://www.w3.org/2000/svg" xmlns:xlink="http://www.w3.org/1999/xlink" x="0px" y="0px"
	 viewBox="0 0 50 50" style="enable-background:new 0 0 50 50;" xml:space="preserve">
<style type="text/css">
	.st0{fill:#212529;}
	.st1{fill:#FED136;}
</style>
<path class="st0" d="M25,50L25,50C11.2,50,0,38.8,0,25v0C0,11.2,11.2,0,25,0h0c13.8,0,25,11.2,25,25v0C50,38.8,38.8,50,25,50z"/>
<path class="st1" d="M36.6,17.1c0,1.4-0.4,2.8-1.2,3.9c-0.9,1.2-2,2.2-3.3,2.9c0.9,0.6,1.6,1.3,2.1,2.2C34.8,27,35.1,28,35,29
	c0,1.3-0.4,2.6-1.2,3.8c-0.8,1.3-1.9,2.4-3.1,3.3c-1.3,1-2.8,1.8-4.3,2.3c-1.6,0.6-3.3,0.9-5,0.9c-1.7,0-3.3-0.3-4.8-1
	c-1.3-0.7-2.5-1.7-3.2-3c0.2-0.7,0.5-1.6,0.9-2.6c0.4-1,0.8-2.2,1.3-3.3c0.5-1.2,1-2.3,1.4-3.5s0.9-2.2,1.4-3.1c0.9-2,1.7-3.7,2.4-5
	c0.6-1.1,1.3-2.2,2-3.1c-1.2,0.4-2.4,0.8-3.5,1.4c-0.8,0.4-1.6,0.9-2.3,1.5c-0.2-0.2-0.5-0.4-0.7-0.6c-0.2-0.3-0.4-0.6-0.6-0.9
	c-0.2-0.3-0.4-0.7-0.5-1c-0.1-0.3-0.2-0.6-0.2-1c0.7-0.5,1.6-0.9,2.4-1.2c1-0.4,2.1-0.7,3.2-1c1.2-0.3,2.4-0.5,3.6-0.7
	c1.2-0.2,2.3-0.2,3.5-0.2c2.3-0.1,4.7,0.5,6.7,1.7C35.8,13.5,36.7,15.2,36.6,17.1z M23.1,25.6c-0.5-0.2-0.9-0.6-1.2-1
	c-0.6,1.2-1.1,2.4-1.5,3.5s-0.9,2.2-1.3,3.2s-0.7,1.9-0.9,2.6c-0.2,0.5-0.3,1.1-0.4,1.6c0.4,0.2,0.8,0.3,1.2,0.4
	c0.6,0.1,1.1,0.2,1.7,0.2c1.6,0,3.1-0.2,4.6-0.7c1.4-0.4,2.7-1.1,3.9-1.9c1-0.7,1.9-1.6,2.7-2.6c0.6-0.9,1-2,1-3.1
	c0.1-1.4-0.7-2.8-2-3.4c-2,0.8-4.1,1.2-6.2,1.1h-0.8C23.5,25.6,23.3,25.6,23.1,25.6z M30,13.3c-0.5,0-1,0-1.6,0.1
	c-0.6,0.1-1.1,0.1-1.8,0.3c0.1,0.1,0.2,0.2,0.2,0.3c0,0.1,0.1,0.2,0.2,0.3c-0.3,0.4-0.5,0.8-0.8,1.2c-0.3,0.5-0.7,1.2-1,1.9
	s-0.8,1.5-1.2,2.4s-0.8,1.8-1.3,2.7c0.5-0.1,1-0.2,1.5-0.2c0.6-0.1,1.1-0.1,1.7-0.1c0.3,0,0.6,0,0.9,0s0.6,0.1,0.9,0.1
	c1-0.2,2.1-0.4,3.1-0.8c0.8-0.3,1.6-0.8,2.3-1.3c0.6-0.4,1.1-1,1.5-1.6c0.3-0.6,0.5-1.2,0.5-1.9c0.1-1-0.5-2-1.3-2.6
	C32.7,13.5,31.3,13.2,30,13.3z"/>
</svg>
